# xmcd
#
# Track frame offsets: 
#        150
#        13683
#        27611
#        42055
#        56762
#        66265
#        76808
#        87797
#        99282
#        115662
#        142925
#        160769
#        173106
#        184670
#        195161
#        209822
#
# Disc length: 2945 seconds
#
# Revision: 3
# Processed by: cddbd v1.5.2PL0 Copyright (c) Steve Scherf et al.
# Submitted via: ExactAudioCopy v0.99pb4
#
DISCID=ca0b7f10
DTITLE=Various Artist - Swinging Christmas Time
DYEAR=2003
DGENRE=Swing
TTITLE0=James Brown - Santa Claus Goes Straight To The Ghetto
TTITLE1=Diana Ross and the Supremes - Twinkle Twinkle Little Me
TTITLE2=Bing Crosby - Adeste Fideles (O Come All Ye Faithful)
TTITLE3=Ella Fitzgerald - Good Morning Blues
TTITLE4=Brenda Lee - Rockin' Around The Chritmas Tree
TTITLE5=Bert Kaempfert - Holliday For Bells
TTITLE6=Platters - Come Home For Christmas
TTITLE7=Petti Page - Where Did My Snowman Go
TTITLE8=Michael Jackson - Little Christmas Tree
TTITLE9=Temptations - Silent Night
TTITLE10=Billie Holiday - I've Got My Love To Keep Me Warm
TTITLE11=Dinah Washington - Ole Santa
TTITLE12=Burt Bacharach - The Bell That Couldn't Jingle
TTITLE13=Peggy Lee - Ring Those Christmas Bells
TTITLE14=Chuck Berry - Marry Christmas Baby
TTITLE15=Weavers - We Wish You A Merry Christmas
EXTD=
EXTT0=
EXTT1=
EXTT2=
EXTT3=
EXTT4=
EXTT5=
EXTT6=
EXTT7=
EXTT8=
EXTT9=
EXTT10=
EXTT11=
EXTT12=
EXTT13=
EXTT14=
EXTT15=
PLAYORDER=
